<?xml version="1.0" standalone="no"?><!DOCTYPE svg PUBLIC "-//W3C//DTD SVG 1.1//EN" "http://www.w3.org/Graphics/SVG/1.1/DTD/svg11.dtd"><svg t="1504414471210" class="icon" style="" viewBox="0 0 1024 1024" version="1.1" xmlns="http://www.w3.org/2000/svg" p-id="2357" xmlns:xlink="http://www.w3.org/1999/xlink" width="200" height="200"><defs><style type="text/css"></style></defs><path d="M511.377753 0.001246C228.594642 0.624116-0.621625 229.840382 0.001246 512.623493c0 37.995088 4.360092 75.367305 12.457406 110.870912 51.075364 229.216266 255.999689 400.505595 500.787711 400.505595 244.788023-0.62287 449.089478-172.53507 499.541972-401.751336 8.097314-35.503606 11.834535-72.875824 11.834535-110.870911-0.62287-282.783111-230.462007-511.999377-513.245117-511.376507" fill="#CDD9DD" p-id="2358"></path><path d="M788.555031 266.589729L574.287652 187.485203c-12.457406-4.360092-25.537682 1.868611-30.520644 14.326016l-168.174978 458.432533c-4.360092 12.457406 1.868611 25.537682 14.326016 30.520644l333.858475 122.705446c12.457406 4.360092 25.537682-1.868611 30.520644-14.326016l124.574058-338.841437-90.316192-193.71266z" fill="#3498DB" p-id="2359"></path><path d="M642.180513 450.336464l80.973138 362.510508-159.454794-58.549807V415.455728z" fill="#34495E" p-id="2360"></path><path d="M755.542906 406.112674L834.647432 578.024873l43.60092-117.722484z" fill="#34495E" p-id="2361"></path><path d="M744.33124 386.180825c-1.868611 5.605833-1.868611 12.457406 0.622871 18.063238 2.491481 5.605833 7.474443 9.965925 13.080276 12.457406l119.591095 44.22379-89.693321-193.71266-43.600921 118.968226z" fill="#2980B9" p-id="2362"></path><path d="M510.754882 281.538616l-226.724785-28.029163c-13.080276-1.868611-24.914812 7.474443-26.160552 20.55472l-59.795548 484.593084c-0.62287 6.228703 1.245741 12.457406 4.982963 17.440368 3.737222 4.982962 9.343054 8.097314 15.571757 8.720184l353.167454 43.60092c13.080276 1.868611 24.914812-7.474443 26.160552-20.554719l44.22379-358.150416-131.425631-168.174978z" fill="#FD6E70" p-id="2363"></path><path d="M510.754882 425.421653l116.476744 148.865999 14.948887-123.951188z" fill="#DD5558" p-id="2364"></path><path d="M495.183125 407.981285c-1.868611 13.080276 7.474443 24.914812 20.55472 26.160552l126.442668 15.571757-131.425631-168.174978-15.571757 126.442669z" fill="#FE9597" p-id="2365"></path><path d="M437.879059 464.662481c-0.62287 6.851573-6.851573 11.834535-13.703147 10.588795l-130.80276-16.194628c-6.851573-0.62287-11.834535-6.851573-10.588795-13.703146l0.62287-4.360092c0.62287-6.851573 6.851573-11.834535 13.703146-10.588795l130.802761 16.194628c6.851573 0.62287 11.834535 6.851573 10.588795 13.703146l-0.62287 4.360092zM462.171 523.835158c-0.62287 6.851573-6.851573 11.834535-13.703147 10.588795l-161.946275-19.931849c-6.851573-0.62287-11.834535-6.851573-10.588794-13.703146l0.62287-4.360092c0.62287-6.851573 6.851573-11.834535 13.703146-10.588795l161.946275 19.931849c6.851573 0.62287 11.834535 6.851573 10.588795 13.703146l-0.62287 4.360092zM423.553042 576.156263c-0.62287 6.851573-6.851573 11.834535-13.703146 10.588794l-130.802761-16.194627c-6.851573-0.62287-11.834535-6.851573-10.588795-13.703146l0.62287-4.360092c0.62287-6.851573 6.851573-11.834535 13.703147-10.588795l130.80276 16.194627c6.851573 0.62287 11.834535 6.851573 10.588795 13.703147l-0.62287 4.360092z" fill="#FFFFFF" p-id="2366"></path><path d="M455.942297 630.345978c-0.62287 6.851573-6.851573 11.834535-13.703146 10.588795l-169.420719-20.55472c-6.851573-0.62287-11.834535-6.851573-10.588795-13.703146l0.62287-4.360092c0.62287-6.851573 6.851573-11.834535 13.703147-10.588795l169.420718 20.554719c6.851573 0.62287 11.834535 6.851573 10.588795 13.703147l-0.62287 4.360092z" fill="#FFFFFF" p-id="2367"></path><path d="M395.523879 671.455417c-0.62287 6.851573-6.851573 11.834535-13.703146 10.588795L267.83547 667.718195c-6.851573-0.62287-11.834535-6.851573-10.588795-13.703146l0.62287-4.360092c0.62287-6.851573 6.851573-11.834535 13.703147-10.588795l113.985262 14.326016c6.851573 0.62287 11.834535 6.851573 10.588795 13.703147l-0.62287 4.360092z" fill="#FFFFFF" p-id="2368"></path></svg>