<?xml version="1.0" standalone="no"?><!DOCTYPE svg PUBLIC "-//W3C//DTD SVG 1.1//EN" "http://www.w3.org/Graphics/SVG/1.1/DTD/svg11.dtd"><svg t="1504420461234" class="icon" style="" viewBox="0 0 1024 1024" version="1.1" xmlns="http://www.w3.org/2000/svg" p-id="2359" xmlns:xlink="http://www.w3.org/1999/xlink" width="200" height="200"><defs><style type="text/css"></style></defs><path d="M1011.05229 516.84356a507.15644 499.145464 90 1 0-998.290928 0 507.15644 499.145464 90 1 0 998.290928 0Z" fill="#CEA972" p-id="2360"></path><path d="M803.752865 550.292468c0-133.105457-133.721686-292.092531-295.789905-291.476302-98.596635 0-143.581349 37.589967-175.009026 68.401416l394.386539 399.316371c43.752257-41.287341 76.412392-104.758924 76.412392-176.241485z" fill="#EF4D4C" p-id="2361"></path><path d="M335.41885 324.136437c-107.840069 121.397107-127.559396 350.634283-1.848687 415.954553 91.201887 47.449631 93.666803-56.693065 69.017644-83.80714-25.265388-26.497846 12.940808-44.984715 49.914546-13.557037s64.704042 131.25677 168.846738 130.640541c35.74128 0 73.947476-18.486869 106.607611-48.682088l-392.537852-400.548829z" fill="#D54D4A" p-id="2362"></path><path d="M489.278898 351.275161a43.752257 42.519799 90 1 0-85.039597 0 43.752257 42.519799 90 1 0 85.039597 0Z" fill="#F4F5F5" p-id="2363"></path><path d="M646.762373 368.209133a42.519799 41.90357 90 1 0-83.807139 0 42.519799 41.90357 90 1 0 83.807139 0Z" fill="#EDAC4E" p-id="2364"></path><path d="M750.103971 502.374504a44.368486 43.752257 90 1 0-87.504513 0 44.368486 43.752257 90 1 0 87.504513 0Z" fill="#82C041" p-id="2365"></path><path d="M698.229817 648.322172a59.77421 58.541752 90 1 0-117.083504 0 59.77421 58.541752 90 1 0 117.083504 0Z" fill="#EFE58F" p-id="2366"></path></svg>