<?xml version="1.0" encoding="UTF-8"?>
<svg width="640px" height="640px" viewBox="0 0 640 640" version="1.1" xmlns="http://www.w3.org/2000/svg" xmlns:xlink="http://www.w3.org/1999/xlink">
    <!-- Generator: Sketch 46.2 (44496) - http://www.bohemiancoding.com/sketch -->
    <title>add</title>
    <desc>Created with Sketch.</desc>
    <defs></defs>
    <g id="Page-1" stroke="none" stroke-width="1" fill="none" fill-rule="evenodd">
        <g id="add" fill-rule="nonzero" fill="#FFFFFF">
            <path d="M320,640 C337.673112,640 352,625.673112 352,608 L352,352 L608,352 C625.673112,352 640,337.673112 640,320 C640,302.326888 625.673112,288 608,288 L352,288 L352,32 C352,14.326888 337.673112,0 320,0 C302.326888,0 288,14.326888 288,32 L288,288 L32,288 C14.326888,288 0,302.326888 0,320 C0,337.673112 14.326888,352 32,352 L288,352 L288,608 C288,625.673112 302.326888,640 320,640" id="Shape"></path>
        </g>
    </g>
</svg>