<?xml version="1.0" encoding="UTF-8"?>
<svg width="408px" height="408px" viewBox="0 0 408 408" version="1.1" xmlns="http://www.w3.org/2000/svg" xmlns:xlink="http://www.w3.org/1999/xlink">
    <!-- Generator: Sketch 42 (36781) - http://www.bohemiancoding.com/sketch -->
    <title>Group</title>
    <desc>Created with Sketch.</desc>
    <defs>
        <filter x="-50%" y="-50%" width="200%" height="200%" filterUnits="objectBoundingBox" id="filter-1">
            <feOffset dx="0" dy="2" in="SourceAlpha" result="shadowOffsetOuter1"></feOffset>
            <feGaussianBlur stdDeviation="2" in="shadowOffsetOuter1" result="shadowBlurOuter1"></feGaussianBlur>
            <feColorMatrix values="0 0 0 0 0   0 0 0 0 0   0 0 0 0 0  0 0 0 0.5 0" type="matrix" in="shadowBlurOuter1" result="shadowMatrixOuter1"></feColorMatrix>
            <feMerge>
                <feMergeNode in="shadowMatrixOuter1"></feMergeNode>
                <feMergeNode in="SourceGraphic"></feMergeNode>
            </feMerge>
        </filter>
    </defs>
    <g id="Page-1" stroke="none" stroke-width="1" fill="none" fill-rule="evenodd">
        <g id="snowing1" transform="translate(-71.000000, -73.000000)">
            <g id="Group" filter="url(#filter-1)" transform="translate(75.000000, 75.000000)">
                <rect id="Rectangle-89-Copy-174" fill="#F06050" opacity="0.8" x="250" y="350" width="50" height="50"></rect>
                <rect id="Rectangle-89-Copy-173" fill="#00C7AB" x="200" y="350" width="50" height="50"></rect>
                <rect id="Rectangle-89-Copy-172" fill="#F7CD1F" x="150" y="350" width="50" height="50"></rect>
                <rect id="Rectangle-89-Copy-171" fill="#EF9033" opacity="0.8" x="100" y="350" width="50" height="50"></rect>
                <rect id="Rectangle-89-Copy-164" fill="#F7CD1F" opacity="0.8" x="250" y="300" width="50" height="50"></rect>
                <rect id="Rectangle-89-Copy-163" fill="#415C71" x="200" y="300" width="50" height="50"></rect>
                <rect id="Rectangle-89-Copy-162" fill="#00C7AB" x="150" y="300" width="50" height="50"></rect>
                <rect id="Rectangle-89-Copy-161" fill="#F06050" x="100" y="300" width="50" height="50"></rect>
                <rect id="Rectangle-89-Copy-155" fill="#000000" x="300" y="250" width="50" height="50"></rect>
                <rect id="Rectangle-89-Copy-154" fill="#415C71" x="250" y="250" width="50" height="50"></rect>
                <rect id="Rectangle-89-Copy-153" fill="#00C7AB" x="200" y="250" width="50" height="50"></rect>
                <rect id="Rectangle-89-Copy-152" fill="#EF9033" x="150" y="250" width="50" height="50"></rect>
                <rect id="Rectangle-89-Copy-151" fill="#520E24" x="100" y="250" width="50" height="50"></rect>
                <rect id="Rectangle-89-Copy-150" fill="#EF9033" x="50" y="250" width="50" height="50"></rect>
                <rect id="Rectangle-89-Copy-146" fill="#262732" x="350" y="200" width="50" height="50"></rect>
                <rect id="Rectangle-89-Copy-145" fill="#8F2041" opacity="0.9" x="300" y="200" width="50" height="50"></rect>
                <rect id="Rectangle-89-Copy-144" fill="#520E24" opacity="0.9" x="250" y="200" width="50" height="50"></rect>
                <rect id="Rectangle-89-Copy-143" fill="#415457" opacity="0.9" x="200" y="200" width="50" height="50"></rect>
                <rect id="Rectangle-89-Copy-142" fill="#262732" opacity="0.9" x="150" y="200" width="50" height="50"></rect>
                <rect id="Rectangle-89-Copy-141" fill="#DC554F" opacity="0.9" x="100" y="200" width="50" height="50"></rect>
                <rect id="Rectangle-89-Copy-140" fill="#8F2041" opacity="0.9" x="50" y="200" width="50" height="50"></rect>
                <rect id="Rectangle-89-Copy-139" fill="#520E24" x="0" y="200" width="50" height="50"></rect>
                <rect id="Rectangle-89-Copy-136" fill="#415C71" x="350" y="150" width="50" height="50"></rect>
                <rect id="Rectangle-89-Copy-135" fill="#00C7AB" x="300" y="150" width="50" height="50"></rect>
                <rect id="Rectangle-89-Copy-134" fill="#F06050" x="250" y="150" width="50" height="50"></rect>
                <rect id="Rectangle-89-Copy-133" fill="#F7CD1F" x="200" y="150" width="50" height="50"></rect>
                <rect id="Rectangle-89-Copy-132" fill="#415C71" x="150" y="150" width="50" height="50"></rect>
                <rect id="Rectangle-89-Copy-131" fill="#00C7AB" x="100" y="150" width="50" height="50"></rect>
                <rect id="Rectangle-89-Copy-130" fill="#415C71" x="50" y="150" width="50" height="50"></rect>
                <rect id="Rectangle-89-Copy-129" fill="#F06050" x="0" y="150" width="50" height="50"></rect>
                <rect id="Rectangle-89-Copy-126" fill="#00C7AB" x="350" y="100" width="50" height="50"></rect>
                <rect id="Rectangle-89-Copy-125" fill="#F06050" x="300" y="100" width="50" height="50"></rect>
                <rect id="Rectangle-89-Copy-124" fill="#415C71" x="250" y="100" width="50" height="50"></rect>
                <rect id="Rectangle-89-Copy-123" fill="#00C7AB" x="200" y="100" width="50" height="50"></rect>
                <rect id="Rectangle-89-Copy-122" fill="#F06050" x="150" y="100" width="50" height="50"></rect>
                <rect id="Rectangle-89-Copy-121" fill="#F7CD1F" x="100" y="100" width="50" height="50"></rect>
                <rect id="Rectangle-89-Copy-120" fill="#00C7AB" x="50" y="100" width="50" height="50"></rect>
                <rect id="Rectangle-89-Copy-119" fill="#415C71" x="0" y="100" width="50" height="50"></rect>
                <rect id="Rectangle-89-Copy-115" fill="#415C71" x="300" y="50" width="50" height="50"></rect>
                <rect id="Rectangle-89-Copy-114" fill="#00C7AB" x="250" y="50" width="50" height="50"></rect>
                <rect id="Rectangle-89-Copy-113" fill="#F06050" opacity="0.7" x="200" y="50" width="50" height="50"></rect>
                <rect id="Rectangle-89-Copy-112" fill="#EF9033" opacity="0.9" x="150" y="50" width="50" height="50"></rect>
                <rect id="Rectangle-89-Copy-111" fill="#415C71" x="100" y="50" width="50" height="50"></rect>
                <rect id="Rectangle-89-Copy-110" fill="#F06050" opacity="0.9" x="50" y="50" width="50" height="50"></rect>
                <rect id="Rectangle-89-Copy-104" fill="#F7CD1F" x="250" y="0" width="50" height="50"></rect>
                <rect id="Rectangle-89-Copy-103" fill="#00C7AB" x="200" y="0" width="50" height="50"></rect>
                <rect id="Rectangle-89-Copy-102" fill="#F06050" x="150" y="0" width="50" height="50"></rect>
                <rect id="Rectangle-89-Copy-101" fill="#EF9033" opacity="0.7" x="100" y="0" width="50" height="50"></rect>
            </g>
        </g>
    </g>
</svg>